<svg id="Layer_1" data-name="Layer 1" xmlns="http://www.w3.org/2000/svg" viewBox="0 0 443.73 180.32"><defs><style>.cls-1{isolation:isolate;}.cls-2{fill:#5695ff;}.cls-3{fill:#fff;}</style></defs><title>SZ Logo Finished</title><g class="cls-1"><path class="cls-2" d="M43.32,227.85A8.43,8.43,0,0,0,45,233a19,19,0,0,0,4.47,4.23,48.86,48.86,0,0,0,6.31,3.7L63,244.57q3.7,1.86,7.23,4a35.26,35.26,0,0,1,6.32,4.8A22.13,22.13,0,0,1,81,259.41a17.07,17.07,0,0,1,1.68,7.71,20,20,0,0,1-1.27,7.25A20.73,20.73,0,0,1,78,280.31,24.45,24.45,0,0,1,72.73,285a32.36,32.36,0,0,1-6.53,3.33,40.87,40.87,0,0,1-7.36,2,44.06,44.06,0,0,1-7.76.68,42.34,42.34,0,0,1-10.65-1.33,29.81,29.81,0,0,1-9.21-4,20.91,20.91,0,0,1-6.46-6.75,18,18,0,0,1-2.44-9.48,12.62,12.62,0,0,1,.9-4.94,12,12,0,0,1,2.24-3.55,9.27,9.27,0,0,1,2.91-2.14,7,7,0,0,1,2.94-.73,3.58,3.58,0,0,1,2.34.77,2.9,2.9,0,0,1,1,2.39,7.51,7.51,0,0,1-.18,1.58c-.12.55-.24,1.16-.37,1.82s-.26,1.38-.37,2.17a17.13,17.13,0,0,0-.18,2.58,9.83,9.83,0,0,0,1.4,5.31,11.61,11.61,0,0,0,3.73,3.68A17.43,17.43,0,0,0,44,280.44a27.43,27.43,0,0,0,6.26.71,32.56,32.56,0,0,0,7.63-.92,24.82,24.82,0,0,0,6.84-2.72,16.12,16.12,0,0,0,4.91-4.41,10,10,0,0,0,1.88-6,9.63,9.63,0,0,0-1.68-5.57A19.57,19.57,0,0,0,65.34,257,45.13,45.13,0,0,0,59,253.09l-7.23-3.72q-3.69-1.89-7.23-4a38.87,38.87,0,0,1-6.34-4.58,21.17,21.17,0,0,1-4.47-5.59,14.47,14.47,0,0,1-1.69-7,16.23,16.23,0,0,1,1.78-7.26,19,19,0,0,1,5.35-6.4A28.65,28.65,0,0,1,48.1,210a40.54,40.54,0,0,1,12.53-1.75,29.7,29.7,0,0,1,8.92,1.36,26.34,26.34,0,0,1,7.78,3.86,20.23,20.23,0,0,1,5.5,6,14.58,14.58,0,0,1,2.09,7.67,16.62,16.62,0,0,1-.86,5.13,22.78,22.78,0,0,1-2.74,5.48,13.39,13.39,0,0,1-4,4.09,7.68,7.68,0,0,1-3.92,1.34,3,3,0,0,1-2.15-.77,2.94,2.94,0,0,1-.83-2.3,8.54,8.54,0,0,1,.52-2.69,17.31,17.31,0,0,1,1.8-3.58,17.93,17.93,0,0,0,1.75-3.61,9.87,9.87,0,0,0,.57-3.14,6.6,6.6,0,0,0-1.2-3.92,9.71,9.71,0,0,0-3.33-2.83,17.92,17.92,0,0,0-5.11-1.71,35.68,35.68,0,0,0-6.53-.57,23.33,23.33,0,0,0-6.86.9,16.47,16.47,0,0,0-4.87,2.33,9.73,9.73,0,0,0-2.89,3.17A7.28,7.28,0,0,0,43.32,227.85Z" transform="translate(-22.32 -155.7)"/><path class="cls-2" d="M127.56,275.54q-4.2,2.44-7.49,4.29t-5.85,3.07a33.71,33.71,0,0,1-4.56,1.84,12.4,12.4,0,0,1-3.62.61,9.18,9.18,0,0,1-5.87-2,15.19,15.19,0,0,1-4.25-5.81,36.28,36.28,0,0,1-2.57-9.18,78.08,78.08,0,0,1-.85-12.14c0-1.76.07-3.63.22-5.61s.35-4,.61-5.92q-1.32-.18-2-.33L89.76,244c-.54-.1-1.23-.21-2.06-.33s-2-.26-3.62-.43a3.86,3.86,0,0,1-1.62-.51,2.31,2.31,0,0,1-.83-.88,2.6,2.6,0,0,1-.31-1c0-.36,0-.68,0-.94a1.46,1.46,0,0,1,.85-1.34,7.35,7.35,0,0,1,2.19-.68,21.59,21.59,0,0,1,2.94-.24c1.07,0,2.09,0,3.07,0l2.63.06a9.25,9.25,0,0,0,1.6-.06,99.86,99.86,0,0,1,3-11.47,64.65,64.65,0,0,1,4.08-9.86,26.92,26.92,0,0,1,4.93-6.92,8,8,0,0,1,5.61-2.61,6,6,0,0,1,3.44,1.05,9.17,9.17,0,0,1,2.65,2.81,14.32,14.32,0,0,1,1.69,4.09,20.21,20.21,0,0,1,.59,4.89,18.28,18.28,0,0,1-.61,4.54,34.58,34.58,0,0,1-1.67,4.86,50.64,50.64,0,0,1-2.48,5q-1.42,2.55-3,5c.26,0,.7,0,1.32.07l2.12.06,2.61.11c.94.05,1.84.08,2.72.11l2.45.09,1.89.09a1.41,1.41,0,0,1,1.27.87,5,5,0,0,1,.39,2.11,3.61,3.61,0,0,1-.87,2.5,2.6,2.6,0,0,1-1.93,1H107.93c-.85,1.17-1.71,2.32-2.57,3.44s-1.66,2.14-2.39,3c-.11,1.81-.22,3.59-.3,5.35q0,1.14-.09,2.34l-.09,2.39q0,1.19-.06,2.28t0,2a15.6,15.6,0,0,0,.44,4,7.12,7.12,0,0,0,1.27,2.65,4.85,4.85,0,0,0,2,1.5,7.64,7.64,0,0,0,2.7.46,8,8,0,0,0,2.3-.44,25,25,0,0,0,3-1.21c1.1-.51,2.25-1.12,3.47-1.82s2.41-1.47,3.59-2.3,2.31-1.71,3.4-2.63a30.44,30.44,0,0,0,2.93-2.83Zm-14-55.5a8.56,8.56,0,0,0-.07-1.07,4.18,4.18,0,0,0-.28-1.12,2.15,2.15,0,0,0-.68-.87,2.07,2.07,0,0,0-1.3-.35c-.76,0-1.52.67-2.3,2a29.91,29.91,0,0,0-2.23,5.15q-1.08,3.14-2,6.91c-.63,2.51-1.2,5-1.73,7.32l1.31.15,1.36.15q1.32-2.23,2.74-4.84t2.57-5.13c.76-1.68,1.38-3.25,1.88-4.71A11.65,11.65,0,0,0,113.54,220Z" transform="translate(-22.32 -155.7)"/><path class="cls-2" d="M159,246.12a27.8,27.8,0,0,1-.26,3.23c-.18,1.36-.4,2.85-.68,4.47s-.58,3.29-.9,5l-.9,4.82c-.28,1.49-.5,2.8-.68,3.92a19.13,19.13,0,0,0-.26,2.34c0,.82,0,1.58,0,2.26a8.18,8.18,0,0,0,.26,1.8,2.51,2.51,0,0,0,.68,1.18,1.94,1.94,0,0,0,1.34.42,7.41,7.41,0,0,0,2.35-.48,21.87,21.87,0,0,0,2.93-1.3c1-.54,2.1-1.15,3.18-1.84s2.11-1.41,3.09-2.17,1.87-1.51,2.67-2.25a17.28,17.28,0,0,0,2-2.09c0,1,0,1.84,0,2.63s0,1.55,0,2.26,0,1.45,0,2.21,0,1.61,0,2.55a24.63,24.63,0,0,1-2.39,2.06q-1.42,1.09-3.15,2.19c-1.16.73-2.38,1.43-3.68,2.1a38.07,38.07,0,0,1-3.93,1.78,30.2,30.2,0,0,1-3.9,1.23,15.85,15.85,0,0,1-3.59.46,5.77,5.77,0,0,1-2.85-.66,6.25,6.25,0,0,1-2-1.84,11.55,11.55,0,0,1-1.45-2.83,31.75,31.75,0,0,1-1-3.66,36.09,36.09,0,0,1-3.33,3.79,26.8,26.8,0,0,1-3.57,3,17.28,17.28,0,0,1-3.68,2,10,10,0,0,1-3.62.72A7.57,7.57,0,0,1,129,285a5.59,5.59,0,0,1-2.26-1.62,8.13,8.13,0,0,1-1.56-3,16,16,0,0,1-.57-4.62,58.14,58.14,0,0,1,.81-8.59q.81-5.22,2-11.92c.06-.44.17-1,.33-1.78s.38-1.55.65-2.43a23.94,23.94,0,0,1,1-2.67,12.36,12.36,0,0,1,1.45-2.46,7.4,7.4,0,0,1,2-1.8,5,5,0,0,1,2.52-.74,8.87,8.87,0,0,1,3.33.59c.67.34,1,.75,1,1.25-.26,1.55-.55,3.27-.85,5.17s-.63,3.82-.95,5.74-.63,3.81-.92,5.64-.55,3.45-.79,4.88-.41,2.59-.54,3.47-.2,1.33-.2,1.36a7.44,7.44,0,0,0,.15,1.51,4.91,4.91,0,0,0,.46,1.29,2.74,2.74,0,0,0,.79.92,1.84,1.84,0,0,0,1.14.35,4.46,4.46,0,0,0,2-.5,6.91,6.91,0,0,0,1.91-1.45,9.78,9.78,0,0,0,1.6-2.32,12,12,0,0,0,1-3.14l4.34-22.26A2.79,2.79,0,0,1,150.6,244a8.26,8.26,0,0,1,3.52-.72,6.88,6.88,0,0,1,3.56.79A2.32,2.32,0,0,1,159,246.12Z" transform="translate(-22.32 -155.7)"/><path class="cls-2" d="M217.81,276.76a74.14,74.14,0,0,1-6.13,4.3c-.85.52-1.74,1-2.68,1.55a29.29,29.29,0,0,1-2.76,1.36,21.47,21.47,0,0,1-2.65,1,8.6,8.6,0,0,1-2.39.37,9.48,9.48,0,0,1-4.45-1.34,12.24,12.24,0,0,1-2.85-2.34,13.44,13.44,0,0,1-2.47-4.08,43.37,43.37,0,0,1-3.45,3,26.23,26.23,0,0,1-3.76,2.48,24.07,24.07,0,0,1-3.95,1.69,13.26,13.26,0,0,1-4,.63,9.61,9.61,0,0,1-4.93-1.22,10.7,10.7,0,0,1-3.46-3.27,14.91,14.91,0,0,1-2.06-4.62,20.71,20.71,0,0,1-.68-5.35,23.34,23.34,0,0,1,.72-5.68,26,26,0,0,1,2.1-5.56,28,28,0,0,1,3.36-5.09,25.63,25.63,0,0,1,9.9-7.34,21,21,0,0,1,6.27-1.53,81.77,81.77,0,0,1,1-11.09,84.79,84.79,0,0,1,2.32-10.43,66,66,0,0,1,3.4-9.17,39.49,39.49,0,0,1,4.27-7.27,20.13,20.13,0,0,1,5-4.8,9.69,9.69,0,0,1,5.43-1.73,5.78,5.78,0,0,1,3.51,1.07,8.05,8.05,0,0,1,2.34,2.85,14.24,14.24,0,0,1,1.29,4.12,28.4,28.4,0,0,1,.4,4.84c0,1,0,2.08-.13,3.16a65.36,65.36,0,0,1-2.11,11.68,108.69,108.69,0,0,1-3.59,10.72q-2.06,5.22-4.47,10.34t-4.69,10.65c-.15.41-.29.91-.44,1.49s-.28,1.22-.42,1.91-.24,1.39-.32,2.1a16.94,16.94,0,0,0,0,4.5,8.74,8.74,0,0,0,.5,2,3.75,3.75,0,0,0,.94,1.43,2.16,2.16,0,0,0,1.47.53,6.06,6.06,0,0,0,1.82-.33,14.38,14.38,0,0,0,2.08-.9c.73-.38,1.47-.81,2.22-1.3s1.46-1,2.17-1.46q2.4-1.75,5-4Zm-30.15-24.54a18.3,18.3,0,0,0-5.15,3.7,23.43,23.43,0,0,0-3.77,5,24.83,24.83,0,0,0-2.3,5.39,17.64,17.64,0,0,0-.79,4.91,8,8,0,0,0,.19,1.75,4.31,4.31,0,0,0,.73,1.58,3.66,3.66,0,0,0,1.49,1.14,6.09,6.09,0,0,0,2.5.44,3.41,3.41,0,0,0,1.55-.4,7,7,0,0,0,1.47-1,11.06,11.06,0,0,0,1.34-1.45,17.31,17.31,0,0,0,1.16-1.68,30.25,30.25,0,0,0,2.23-4.56,16.86,16.86,0,0,1-.22-1.95c-.05-.89-.1-1.89-.13-3s-.06-2.23-.08-3.4-.06-2.24-.07-3.2,0-1.75-.07-2.37A3.68,3.68,0,0,0,187.66,252.22Zm20.6-31.78c.17-2.05.26-3.67.26-4.87a8.81,8.81,0,0,0-.42-3.28,1.3,1.3,0,0,0-1.2-.92,3.14,3.14,0,0,0-2.54,1.77,19,19,0,0,0-2,4.54,53,53,0,0,0-1.53,6.09q-.66,3.33-1.1,6.44c-.29,2.08-.53,3.95-.7,5.61s-.29,2.85-.35,3.55c-.12,1.44-.21,2.82-.29,4.15s-.12,2.54-.15,3.63,0,2.06,0,2.88v2.32q2.49-5.7,4.6-11.35.87-2.42,1.77-5.07c.6-1.76,1.15-3.54,1.65-5.32s.92-3.54,1.29-5.26A45.84,45.84,0,0,0,208.26,220.44Z" transform="translate(-22.32 -155.7)"/><path class="cls-2" d="M237.8,251.69a6.76,6.76,0,0,1,1.25-2.65,9.09,9.09,0,0,1,4.49-3.13,7.94,7.94,0,0,1,2.41-.4,4.15,4.15,0,0,1,2.28.59,2.08,2.08,0,0,1,.92,1.87,3.75,3.75,0,0,1-.13.92c-.18.76-.39,1.79-.66,3.11s-.55,2.8-.85,4.47-.62,3.43-.94,5.28-.63,3.7-.92,5.54q-1.11,6.49-2.24,13.94a30.45,30.45,0,0,0,2.85-1.84,31.13,31.13,0,0,0,3.42-2.93,62.12,62.12,0,0,0,4.2-4.63q2.33-2.77,5.22-6.95l2.11,9.74a18.67,18.67,0,0,1-2,2.78c-.84,1-1.76,1.9-2.77,2.85s-2,1.87-3.15,2.76-2.17,1.73-3.22,2.52q-3.74,2.81-8,5.43-.84,4.69-2,9.14a66.68,66.68,0,0,1-2.69,8.33,46.8,46.8,0,0,1-3.55,7.12,26,26,0,0,1-4.52,5.57,19.09,19.09,0,0,1-5.63,3.62,17.79,17.79,0,0,1-6.88,1.29,18,18,0,0,1-3.22-.31,8.83,8.83,0,0,1-3.2-1.22,7.28,7.28,0,0,1-2.43-2.63,9.19,9.19,0,0,1-1-4.56,12,12,0,0,1,1-4.45,32.46,32.46,0,0,1,2.76-5.22,63.73,63.73,0,0,1,4.17-5.7c1.6-2,3.35-3.93,5.23-5.89s3.86-3.89,5.92-5.79,4.14-3.71,6.25-5.43l1.18-4.08a23.15,23.15,0,0,1-4.93,3.4,11.05,11.05,0,0,1-5,1.29,10.27,10.27,0,0,1-4.09-.85,10.61,10.61,0,0,1-3.53-2.46,12,12,0,0,1-2.46-3.9,13.92,13.92,0,0,1-.92-5.19,63.12,63.12,0,0,1,.37-7,50.72,50.72,0,0,1,1.08-6.09,44.32,44.32,0,0,1,1.75-5.59c.7-1.79,1.51-3.61,2.41-5.45a6.92,6.92,0,0,1,2.9-3,7.69,7.69,0,0,1,3.68-1,4.49,4.49,0,0,1,2.63.77,2.71,2.71,0,0,1,1.09,2.39,5.07,5.07,0,0,1-.11,1.05,6.25,6.25,0,0,1-.37,1.23c-.52,1.34-1,2.93-1.56,4.75s-1,3.7-1.35,5.61-.71,3.8-.95,5.64a39.85,39.85,0,0,0-.35,4.86,13.52,13.52,0,0,0,.16,2.13,6.38,6.38,0,0,0,.54,1.84,3.63,3.63,0,0,0,1.06,1.31,2.61,2.61,0,0,0,1.66.51,4,4,0,0,0,2.94-1.4,13.8,13.8,0,0,0,2.28-3.38,23.64,23.64,0,0,0,1.55-4.08,24.56,24.56,0,0,0,.77-3.5Zm-20.51,65.92a6.32,6.32,0,0,0,3.48-1.07,12.72,12.72,0,0,0,3-2.83,23.67,23.67,0,0,0,2.53-4,44.43,44.43,0,0,0,2-4.58c.59-1.56,1.08-3.09,1.49-4.58s.73-2.82,1-4a32,32,0,0,0-3.49,2.72c-1.18,1-2.34,2.19-3.46,3.4s-2.19,2.46-3.2,3.75-1.89,2.52-2.65,3.7a23.08,23.08,0,0,0-1.8,3.31,6.75,6.75,0,0,0-.66,2.54C215.53,317.07,216.12,317.61,217.29,317.61Z" transform="translate(-22.32 -155.7)"/></g><path class="cls-2" d="M435.81,208.45c-.15-17.41-13.66-31.53-30.25-31.53a28.8,28.8,0,0,0-7.75,1.05c-8.67-13.8-23.49-22.27-39.3-22.27-17.48,0-33.46,10.22-41.58,26.32a25.39,25.39,0,0,0-8.83-1.57,27,27,0,0,0-24.66,17,47.52,47.52,0,0,0-22.81,17,51.62,51.62,0,0,0-1.34,58.17,47.66,47.66,0,0,0,18.83,16.75,32.9,32.9,0,0,0-.27,4.2c0,17.55,13.57,31.82,30.25,31.82a28.81,28.81,0,0,0,16.18-4.93,45.48,45.48,0,0,0,68.86-.45,25.9,25.9,0,0,0,15.78,5.38c13.53,0,24.81-10.52,26.63-24.36,18.34-7.23,30.5-25.56,30.5-46.35S454,215.74,435.81,208.45Z" transform="translate(-22.32 -155.7)"/><g class="cls-1"><path class="cls-3" d="M308.52,227.8a23.69,23.69,0,0,1-4-.77c-1.16-.33-2.2-.67-3.1-1s-1.73-.63-2.45-.88a6.15,6.15,0,0,0-2-.37,3.32,3.32,0,0,0-1.49.35,4.66,4.66,0,0,0-1.46,1.2,13.93,13.93,0,0,0-1.56,2.28c-.53.95-1.12,2.14-1.74,3.57a9.69,9.69,0,0,1-2.42,3.66,3.65,3.65,0,0,1-2.13,1,1.18,1.18,0,0,1-1.15-.72,4.74,4.74,0,0,1-.34-2,10.45,10.45,0,0,1,.07-1.06c0-.37.09-.77.15-1.18a38,38,0,0,1,2.14-9.2,19.24,19.24,0,0,1,3.19-5.55,9.3,9.3,0,0,1,3.64-2.69,10,10,0,0,1,3.53-.71,12.41,12.41,0,0,1,3.7.57c1.21.38,2.45.81,3.72,1.28s2.55.89,3.87,1.29a15.07,15.07,0,0,0,4.1.63c1.05,0,2,.05,3,.05h2.62q3.87,0,6.14-.09c1.52-.06,2.68-.12,3.49-.18a13.48,13.48,0,0,0,1.64-.17,3.36,3.36,0,0,1,.59-.09,2.81,2.81,0,0,1,2.57,1.23,6.08,6.08,0,0,1,.79,3.33,11.14,11.14,0,0,1-.09,1.38c-.05.48-.12,1-.21,1.51a3.35,3.35,0,0,1-.61.81,7.34,7.34,0,0,1-1.77,1.3q-4.94,4.95-9.08,9.93t-7.52,9.62c-2.26,3.09-4.26,6-6,8.76s-3.27,5.2-4.55,7.35-2.32,3.92-3.12,5.32a30.46,30.46,0,0,1-1.72,2.76l-.22,1a7.29,7.29,0,0,1,.7.35c.44.24,1,.52,1.75.86l2.42,1.11c.89.41,1.81.79,2.74,1.12s1.85.62,2.72.86a9.42,9.42,0,0,0,2.34.35,23.28,23.28,0,0,0,6.17-.75,28.45,28.45,0,0,0,4.95-1.82,31.25,31.25,0,0,0,4-2.28c1.2-.8,2.33-1.51,3.38-2.12a3.09,3.09,0,0,1,1.87-.7,3.47,3.47,0,0,1,1.81.52,6,6,0,0,1,1.55,1.36,7.18,7.18,0,0,1,1.08,1.86,5.5,5.5,0,0,1,.41,2,3.65,3.65,0,0,1-.77,2.41,47.69,47.69,0,0,1-4.1,3.07A47,47,0,0,1,326,282.9a44.93,44.93,0,0,1-6.8,2.67,25.13,25.13,0,0,1-7.32,1.1,10,10,0,0,1-2-.35c-.93-.24-2.18-.64-3.74-1.21s-3.43-1.31-5.61-2.23-4.7-2.07-7.57-3.44a14.47,14.47,0,0,1-4.31,2.82,10.77,10.77,0,0,1-3.94.86,5.49,5.49,0,0,1-3.72-1.23,4.21,4.21,0,0,1-1.42-3.37,9,9,0,0,1,1.08-3.86,19,19,0,0,1,3.64-4.74l31.21-42.08c-.66,0-1.33,0-2,0s-1.41,0-2.15,0C310.37,227.93,309.45,227.89,308.52,227.8Z" transform="translate(-22.32 -155.7)"/><path class="cls-3" d="M356.65,252.52a24.7,24.7,0,0,1,1.85,5.37,25.51,25.51,0,0,1,.61,5.42,25.14,25.14,0,0,1-.55,5.21,27.84,27.84,0,0,1-1.59,5.09,25.73,25.73,0,0,1-2.55,4.6,18.59,18.59,0,0,1-3.45,3.72,15.89,15.89,0,0,1-4.23,2.5,12.89,12.89,0,0,1-4.89.92,11.74,11.74,0,0,1-6.4-1.68,14,14,0,0,1-4.36-4.41,19.84,19.84,0,0,1-2.48-6.14,30.42,30.42,0,0,1-.79-6.92,28.31,28.31,0,0,1,1.4-9,22.07,22.07,0,0,1,4-7.28,18.58,18.58,0,0,1,6.4-4.86,19.83,19.83,0,0,1,8.5-1.78,21.85,21.85,0,0,1,7.57,1.3,28.16,28.16,0,0,1,6.61,3.46,38,38,0,0,1,5.74,5c1.77,1.88,3.43,3.8,5,5.79l-.81,6.18a25.47,25.47,0,0,0-3.11-3.42q-2-1.83-4.14-3.59t-4.32-3.31q-2.11-1.56-3.65-2.61Zm-13.14,24.42a3.88,3.88,0,0,0,2.81-1.51,14.5,14.5,0,0,0,2.38-3.82,26.78,26.78,0,0,0,1.63-5.08,24.74,24.74,0,0,0,.62-5.33,22.09,22.09,0,0,0-.3-3.75,11.8,11.8,0,0,0-.89-3,5.47,5.47,0,0,0-1.53-2,3.52,3.52,0,0,0-2.26-.75,4.72,4.72,0,0,0-3.31,1.53,14.53,14.53,0,0,0-2.77,3.93A25.66,25.66,0,0,0,337.34,268a17.35,17.35,0,0,0,.34,3.46,9.06,9.06,0,0,0,1.07,2.83,5.57,5.57,0,0,0,1.91,1.92A5.3,5.3,0,0,0,343.51,276.94Z" transform="translate(-22.32 -155.7)"/><path class="cls-3" d="M367.66,276.19c0-1.93.11-4.15.34-6.68s.51-5.1.85-7.72.72-5.13,1.15-7.56.83-4.5,1.23-6.22a6.87,6.87,0,0,1,1.81-3.38,4.88,4.88,0,0,1,3.63-1.36,3.45,3.45,0,0,1,3.19,1.45,7.23,7.23,0,0,1,.89,3.86,17.34,17.34,0,0,1-.12,1.77c-.09.75-.19,1.57-.32,2.46s-.26,1.81-.41,2.76-.27,1.83-.4,2.63-.23,1.5-.32,2.1-.13,1-.13,1.21h.85l.81-1.56c.37-.71.79-1.54,1.28-2.47s1-1.93,1.55-3,1.07-2,1.55-3,.92-1.79,1.32-2.52.69-1.28.89-1.63a7.87,7.87,0,0,1,3.11-3.24,8.54,8.54,0,0,1,3.87-.88,3.92,3.92,0,0,1,3.38,1.84,9,9,0,0,1,1.25,5.09,10.91,10.91,0,0,1-.19,1.62c-.13.76-.29,1.67-.49,2.72l-.66,3.46c-.24,1.26-.46,2.54-.66,3.86s-.36,2.61-.49,3.9a35.47,35.47,0,0,0-.19,3.55,12.86,12.86,0,0,0,.66,4.47c.44,1.17,1.13,1.76,2.06,1.76a3.54,3.54,0,0,0,1.47-.4,15.13,15.13,0,0,0,1.79-1,22.65,22.65,0,0,0,2-1.47q1-.83,2-1.71,2.25-2.06,4.72-4.64l.72,9.81-2.13,1.67c-1.16.91-2.34,1.81-3.55,2.72a31.28,31.28,0,0,1-3.76,2.43,22.29,22.29,0,0,1-4.08,1.75,14.41,14.41,0,0,1-4.47.68q-2.32,0-3.93-3.48t-1.59-10.19a50.53,50.53,0,0,1,.34-5.68c.22-2,.51-4.21.85-6.55h-.68l-11.14,22.79a5.71,5.71,0,0,1-1.91,2.46,5.3,5.3,0,0,1-5.28-.11,4.92,4.92,0,0,1-1.63-2.06,9.9,9.9,0,0,1-.77-2.94A28.93,28.93,0,0,1,367.66,276.19Z" transform="translate(-22.32 -155.7)"/><path class="cls-3" d="M421.44,285.35a15.44,15.44,0,0,1-7-1.49,14.57,14.57,0,0,1-5-4,17.23,17.23,0,0,1-3-5.83,23.72,23.72,0,0,1-1-6.94,31.36,31.36,0,0,1,1.89-10.57,29.27,29.27,0,0,1,2.4-5,20,20,0,0,1,3.38-4.21,15.74,15.74,0,0,1,4.34-2.89,13,13,0,0,1,5.33-1.07,12.11,12.11,0,0,1,4.43.79,10.7,10.7,0,0,1,3.55,2.21,10.19,10.19,0,0,1,2.36,3.44,11.67,11.67,0,0,1,.85,4.52,12.57,12.57,0,0,1-1.3,5.43,19.8,19.8,0,0,1-3.59,5.13,25.32,25.32,0,0,1-5.47,4.3,29,29,0,0,1-6.86,2.93,13.27,13.27,0,0,0,1.25,2,5.58,5.58,0,0,0,1.26,1.23,4.18,4.18,0,0,0,1.34.62,6.52,6.52,0,0,0,1.51.17A15.39,15.39,0,0,0,427.5,275a34.68,34.68,0,0,0,5.51-2.63,47.33,47.33,0,0,0,5.06-3.44,43.89,43.89,0,0,0,4-3.53l5.48,5.87a56.48,56.48,0,0,1-7.95,7.06q-1.83,1.32-3.93,2.59a35.26,35.26,0,0,1-4.42,2.25,29.43,29.43,0,0,1-4.81,1.58A21.43,21.43,0,0,1,421.44,285.35Zm-5.65-20.6a8.26,8.26,0,0,0,3.34-.81,15,15,0,0,0,3.36-2.08,14.69,14.69,0,0,0,2.61-2.76,5,5,0,0,0,1.06-2.89,6.66,6.66,0,0,0-.7-3.25,2,2,0,0,0-1.72-1.27,6.42,6.42,0,0,0-3.12.7,6.74,6.74,0,0,0-2.17,1.82,9.77,9.77,0,0,0-1.41,2.54,17.81,17.81,0,0,0-.8,2.87,22.13,22.13,0,0,0-.37,2.81C415.82,263.33,415.79,264.11,415.79,264.75Z" transform="translate(-22.32 -155.7)"/></g></svg>