<svg id="Layer_1" data-name="Layer 1" xmlns="http://www.w3.org/2000/svg" viewBox="0 0 241.06 230.9"><defs><style>.cls-1{stroke:#231f20;stroke-miterlimit:10;stroke-width:0.25px;}</style></defs><title>Study Zone Logo</title><polygon points="70.12 18.96 218.52 20.19 218.05 2.52 70.12 1.11 70.12 18.96"/><polygon points="220.63 41.64 220.63 51.87 138.04 146.07 110.74 146.07 201.77 41.64 220.63 41.64"/><polygon points="21.08 189.39 21.08 179.15 103.28 86.51 130.97 84.81 39.94 189.39 21.08 189.39"/><rect x="197.78" y="0.12" width="22.85" height="51.77"/><rect x="21.08" y="179.1" width="22.85" height="51.8"/><path class="cls-1" d="M153.23,363.76c0-6.67.75-10.5.75-17.41,2.18,0,0-1.13,2-1.13,47.16,0,94.33.07,141.49,0,26.43-.06,49-19.65,52.42-45.22,3.66-27.23-12.66-52-38.71-59.39-9-2.77-9.59-1.15-13.21,3.94-3.75,5.25-8.37,9.86-13.69,16,4.58,0,7.91-.06,11.25,0,16.76.35,29,9.47,32.53,24.24,4.68,19.47-9.39,38.84-29.41,39-48.82.39-97.65.13-146.48.11-.64,0-.29-1-1.07-1.15a13.91,13.91,0,0,1,1.82-11.14c9.74-10.69,19.1-21.74,29-33-2-.82-3.44-1.46-4.93-2-32.71-12.53-52.16-46.29-46.3-80.36,6.08-35.3,35-61,70.41-61.3,48.66-.47,97.32-.12,146-.11,1,0-1.15,2.07.5,2.26,0,5.82-3.39,7.92-3.61,13.68,0,.79,5.09,3.68,4.08,4a13.51,13.51,0,0,1-4,.11c-47,0-94-.17-141,.08-22.69.12-39.44,10.94-48.58,31.53s-5.72,40.15,9.09,57.26A49.48,49.48,0,0,0,194,260.34c1.32.21,3.33.16,4.07-.65,5.81-6.31,11.38-12.83,18-20.42-5.58,0-9.66,0-13.75,0a31.48,31.48,0,0,1-31.26-31.19c-.17-17.32,13.74-31.84,31.14-31.89,48.16-.14,96.33-.05,144.49,0a7.51,7.51,0,0,1,2.3.45s1.5,8.22-1.83,11.84c-8.67,9.45-16.94,19.27-25.36,28.95-1.07,1.23-2.05,2.53-3.37,4.16,1.73.71,3,1.28,4.38,1.79,32.2,12.16,51.1,43.8,47,78.67-3.79,32.12-30.41,58.53-63.38,62.81a66.73,66.73,0,0,1-8.48.44q-72,0-144,0C152.84,365.26,155,363.85,153.23,363.76Zm33.28-59.9h106.4c1.34,0,2.67.05,4,0,6.93-.32,12-5.16,12-11.54s-4.82-11.49-11.87-11.58c-16.83-.21-33.66-.09-50.49-.11H240l73.61-84.46h-39c-23.33,0-46.65,0-70,0-5.49,0-9.86,1.77-12.29,6.85-3.77,7.85,2,16.22,11.35,16.31,16.82.17,33.65.05,50.48.07,1.57,0,3.35-.06,5.93.08Z" transform="translate(-129.47 -134.49)"/></svg>